<svg width="520" height="518" viewBox="0 0 520 518" fill="none" xmlns="http://www.w3.org/2000/svg">
<path d="M260 518C403.594 518 520 402.095 520 259.12C520 116.144 403.594 0.239929 260 0.239929C116.406 0.239929 0 116.144 0 259.12C0 402.095 116.406 518 260 518Z" fill="#FF7A00"/>
<path fill-rule="evenodd" clip-rule="evenodd" d="M392.031 212.392C400.641 220.965 400.641 234.864 392.031 243.437L260.838 374.066L260.826 374.053L260.08 374.795L128.477 243.759C119.867 235.186 119.867 221.287 128.477 212.714L138.31 202.924C146.92 194.351 160.879 194.351 169.489 202.924L260.093 293.137L351.019 202.602C359.629 194.029 373.589 194.029 382.199 202.602L392.031 212.392Z" fill="white"/>
</svg>
