<svg width="238" height="41" viewBox="0 0 238 41" fill="none" xmlns="http://www.w3.org/2000/svg">
<g clip-path="url(#clip0)" filter="url(#filter0_d)">
<path fill-rule="evenodd" clip-rule="evenodd" d="M35.799 18.2925C38.0205 20.5434 39.2983 23.2465 39.2983 26.4411C39.2983 29.095 38.5611 31.5131 36.7918 33.4986C35.0225 35.494 32.7126 36.3393 30.0685 36.3295L10.7537 36.2508V32.3879H29.1544C30.7172 32.3879 32.0246 31.8276 33.1058 30.6874C34.187 29.557 34.7276 28.2202 34.7276 26.6573C34.7276 22.8828 33.3908 20.1994 29.3018 20.1994H10.7537V16.1988H28.8792C30.5108 16.1988 31.9754 15.7074 33.1156 14.518C34.2755 13.2992 34.7276 11.7854 34.7276 10.1243C34.7276 8.57123 34.2755 7.18529 33.1943 6.07457C32.1032 4.96385 30.7172 4.51169 29.1839 4.51169C28.0338 4.51169 26.8838 4.51169 25.7436 4.51169H12.5722C10.3409 4.51169 8.42417 5.26856 6.80232 6.80194C5.17064 8.33533 4.37446 10.2127 4.37446 12.444V36.3295H0.177307V13.1517C0.177307 9.70162 1.31752 6.68399 3.73555 4.21681C6.15358 1.7398 9.12206 0.570105 12.5722 0.570105H30.1177C32.7519 0.570105 35.0127 1.47441 36.7722 3.46978C38.512 5.45532 39.2983 7.8242 39.2983 10.4585C39.2983 13.5744 38.0107 16.1595 35.799 18.2925ZM46.0609 36.3295V0H50.8872V36.3295H46.0609ZM113.353 16.8967H145.338V20.9563H113.353V23.9051C113.353 26.1855 114.12 28.1612 115.643 29.8617C117.157 31.5524 119.044 32.3879 121.315 32.3879H145.564V36.3884H121.275C117.894 36.3884 114.877 35.3563 112.478 32.9481C110.09 30.5596 109.038 27.5911 109.038 24.2196V12.2376C109.038 8.86612 110.09 5.89764 112.478 3.49927C114.877 1.10089 117.894 0.0589764 121.275 0.0589764H145.564V4.06937H121.315C119.034 4.06937 117.157 4.9147 115.643 6.62501C114.12 8.34516 113.353 10.3504 113.353 12.6504V16.8967ZM172.831 25.2419L191.418 33.184L191.389 36.2017H186.867L161.134 25.0945V21.3396H179.387C185.353 21.3396 188.45 18.5186 188.45 12.4932C188.45 10.1931 187.821 8.07976 186.032 6.56604C184.243 5.05231 182.002 4.51169 179.692 4.51169C178.551 4.51169 177.401 4.51169 176.251 4.51169H163.188C160.957 4.51169 159.03 5.25873 157.408 6.79211C155.787 8.3255 154.98 10.1833 154.98 12.4145V36.2017H150.793V13.1026C150.793 9.6623 151.933 6.66433 154.342 4.20698C156.76 1.72997 159.738 0.570105 163.188 0.570105H180.635C184.056 0.570105 187.221 1.52356 189.521 4.13818C191.821 6.76263 192.647 10.0751 192.647 13.5056C192.647 16.8869 191.585 19.875 189.039 22.1456C186.494 24.4162 183.358 25.3402 179.977 25.3402C177.598 25.3402 175.209 25.2812 172.831 25.2419ZM233.626 15.3732H207.666C205.317 15.3732 203.194 16.0416 201.631 17.8305C200.058 19.6391 199.459 21.8606 199.459 24.2295C199.459 26.4902 200.284 28.3971 201.896 29.9895C203.498 31.572 205.405 32.3879 207.666 32.3879H225.221V36.3884H207.666C204.098 36.3884 200.943 35.3072 198.544 32.6139C196.136 30.0386 195.271 26.7261 195.271 23.2564C195.271 19.9045 196.382 16.995 198.829 14.6753C201.287 12.3556 204.275 11.3038 207.656 11.3038H233.567C233.134 9.31827 232.318 7.3229 230.785 5.93696C229.35 4.64931 227.659 4.06937 225.742 4.06937H201.611V0.0589764H225.683C229.045 0.0589764 232.013 1.11072 234.392 3.49927C236.771 5.89764 237.823 8.87595 237.823 12.2376V36.3884H233.626V15.3732ZM71.5191 4.65913C69.5532 4.78692 67.8429 5.55361 66.398 6.9199C64.7663 8.45328 63.9701 10.311 63.9701 12.5423V36.3295H59.7729V12.562C59.7729 9.21997 60.8837 6.31047 63.3312 3.99074C64.7368 2.6736 66.3488 1.72997 68.1967 1.17953C69.2878 0.855158 70.3985 0.638911 71.5387 0.64874C72.7379 0.668399 73.8781 0.933793 74.9987 1.34663C76.6992 1.95605 78.1637 2.93899 79.4317 4.21681C81.8498 6.66433 82.99 9.65247 82.99 13.0928V24.4457C82.99 26.677 83.796 28.5347 85.4178 30.0681C86.794 31.3656 88.406 32.1225 90.2637 32.3092C92.2394 32.1716 93.9399 31.4049 95.3849 30.0485C97.0165 28.5151 97.8127 26.6573 97.8127 24.4261V0.638911H102.01V24.3966C102.01 27.7484 100.899 30.6579 98.4418 32.9678C96.5939 34.7174 94.3921 35.7692 91.8758 36.1624C91.4236 36.2312 90.9911 36.3098 90.5291 36.3196C89.9787 36.3295 89.4577 36.2606 88.9171 36.1722C86.3615 35.7593 84.1695 34.5896 82.3511 32.7516C79.933 30.304 78.7928 27.3061 78.7928 23.8756V12.5227C78.7928 10.2914 77.9868 8.42379 76.365 6.89041C74.9889 5.60276 73.367 4.83606 71.5191 4.65913Z" fill="white"/>
</g>
<defs>
<filter id="filter0_d" x="0" y="0" width="238" height="40.3884" filterUnits="userSpaceOnUse" color-interpolation-filters="sRGB">
<feFlood flood-opacity="0" result="BackgroundImageFix"/>
<feColorMatrix in="SourceAlpha" type="matrix" values="0 0 0 0 0 0 0 0 0 0 0 0 0 0 0 0 0 0 127 0"/>
<feOffset dy="4"/>
<feColorMatrix type="matrix" values="0 0 0 0 0.584314 0 0 0 0 0.584314 0 0 0 0 0.584314 0 0 0 1 0"/>
<feBlend mode="normal" in2="BackgroundImageFix" result="effect1_dropShadow"/>
<feBlend mode="normal" in="SourceGraphic" in2="effect1_dropShadow" result="shape"/>
</filter>
<clipPath id="clip0">
<rect width="238" height="36.3884" fill="white"/>
</clipPath>
</defs>
</svg>
